<svg xmlns="http://www.w3.org/2000/svg" width="20" height="20" viewBox="0 0 20 20">
  <path id="Shape" d="M18.561,20H13.125a.627.627,0,0,1-.625-.625V15a2.5,2.5,0,0,0-5,0v4.371A.626.626,0,0,1,6.875,20H1.44A1.447,1.447,0,0,1,0,18.559V8.123A1.634,1.634,0,0,1,.515,7a.609.609,0,0,1,.049-.04L9.628.126a.625.625,0,0,1,.752,0l9.057,6.832a.51.51,0,0,1,.048.04A1.6,1.6,0,0,1,20,8.088V18.56A1.448,1.448,0,0,1,18.561,20ZM10,11.251A3.754,3.754,0,0,1,13.75,15V18.75h4.809a.192.192,0,0,0,.191-.193V8.123a.343.343,0,0,0-.1-.191L10,1.408,1.346,7.933a.36.36,0,0,0-.1.226v10.4a.191.191,0,0,0,.192.19H6.25V15A3.754,3.754,0,0,1,10,11.251Z" transform="translate(0 0)" fill="#9D9D9D"/>
</svg>
